<svg xmlns="http://www.w3.org/2000/svg" viewBox="0 0 59.7 59.6"><defs><style>.cls-1{fill:#333;}.cls-2{fill:#ffd473;}</style></defs><title>logooo</title><g id="Layer_2" data-name="Layer 2"><g id="Layer_1-2" data-name="Layer 1"><path class="cls-1" d="M57.3,18.2A29.83,29.83,0,0,0,0,29.8,29,29,0,0,0,2.4,41.4,29.83,29.83,0,0,0,59.7,29.8,29,29,0,0,0,57.3,18.2ZM38.7,49.8a22.46,22.46,0,0,1-8.8,1.9,23.08,23.08,0,0,1-3.7-.3A22,22,0,0,1,8.1,31.7,12.75,12.75,0,0,1,8,29.8,21.85,21.85,0,0,1,29.8,8a23.08,23.08,0,0,1,3.7.3A22,22,0,0,1,51.6,28a10.87,10.87,0,0,1,.1,1.8,20.5,20.5,0,0,1-1.9,8.8A22,22,0,0,1,38.7,49.8Z"/><path class="cls-2" d="M27.6,38.2,45.3,20.5a18.07,18.07,0,0,0-24.8-6.1,19,19,0,0,0-6.7,7.1H32L14.4,39.2l.2.3a18,18,0,0,0,24.9,5.6,18.44,18.44,0,0,0,6.4-6.9Z"/></g></g></svg>