<svg xmlns="http://www.w3.org/2000/svg" xmlns:xlink="http://www.w3.org/1999/xlink" viewBox="0 0 1919.93 948"><defs><style>.cls-1{isolation:isolate;}.cls-2{fill:#111;opacity:0.5;}.cls-3{fill:#333;}.cls-4,.cls-6{mix-blend-mode:multiply;}.cls-4{fill:url(#linear-gradient);}.cls-5{fill:#f4f4f4;}.cls-6{fill:url(#linear-gradient-2);}</style><linearGradient id="linear-gradient" x1="1141.59" y1="259.32" x2="1890.46" y2="259.32" gradientUnits="userSpaceOnUse"><stop offset="0" stop-color="#fff" stop-opacity="0"/><stop offset="0.86" stop-color="#888" stop-opacity="0.47"/><stop offset="1"/></linearGradient><linearGradient id="linear-gradient-2" x1="526.35" y1="444.67" x2="232.31" y2="939.76" xlink:href="#linear-gradient"/></defs><title>menu</title><g class="cls-1"><g id="Layer_2" data-name="Layer 2"><g id="Layer_3" data-name="Layer 3"><rect class="cls-2" width="1919" height="948" rx="72.68"/><path class="cls-3" d="M1890.46,141a77.93,77.93,0,0,1-21.36,12l-503.34,224.6L828.35,617.44,639.26,701.82,398.2,809.39l-107.64,48-179.1,79.92A78,78,0,0,1,54.29,792.23c.92-.39,1.85-.76,2.8-1.11L538.75,576.19,604.19,547l537.4-239.8L1514,141,1814.72,6.82A78,78,0,0,1,1890.46,141Z"/><path class="cls-4" d="M1890.46,141a77.93,77.93,0,0,1-21.36,12l-503.34,224.6-224.17-70.45L1514,141Z"/><rect class="cls-5" y="2" width="1919" height="156" rx="78"/><path class="cls-6" d="M639.26,701.82,398.2,809.39l-107.64,48L52,811l2.29-18.77c.92-.39,1.85-.76,2.8-1.11L538.75,576.19Z"/><rect class="cls-5" y="790" width="1919" height="156" rx="78"/></g></g></g></svg>