<svg xmlns="http://www.w3.org/2000/svg" xmlns:xlink="http://www.w3.org/1999/xlink" viewBox="0 0 1919.93 948"><defs><style>.cls-1{fill:none;}.cls-2{isolation:isolate;}.cls-3{opacity:0.5;}.cls-4{fill:#111;}.cls-5{fill:#333;}.cls-6{mix-blend-mode:multiply;}.cls-7{clip-path:url(#clip-path);}.cls-8{fill:#fff;}.cls-9{fill:#fefefe;}.cls-10{fill:#fdfdfd;}.cls-11{fill:#fcfcfc;}.cls-12{fill:#fbfbfb;}.cls-13{fill:#fafafa;}.cls-14{fill:#f9f9f9;}.cls-15{fill:#f8f8f8;}.cls-16{fill:#f7f7f7;}.cls-17{fill:#f6f6f6;}.cls-18{fill:#f6f6f5;}.cls-19{fill:#f5f5f5;}.cls-20{fill:#f4f4f4;}.cls-21{fill:#f3f3f3;}.cls-22{fill:#f2f2f2;}.cls-23{fill:#f1f1f1;}.cls-24{fill:#f0f0f0;}.cls-25{fill:#efefef;}.cls-26{fill:#efefee;}.cls-27{fill:#eee;}.cls-28{fill:#ededed;}.cls-29{fill:#ececec;}.cls-30{fill:#ebebeb;}.cls-31{fill:#ebebea;}.cls-32{fill:#eaeaea;}.cls-33{fill:#e9e9e9;}.cls-34{fill:#e8e8e8;}.cls-35{fill:#e8e8e7;}.cls-36{fill:#e7e7e7;}.cls-37{fill:#e6e6e6;}.cls-38{fill:#e5e5e5;}.cls-39{fill:#e4e4e4;}.cls-40{fill:#e3e3e3;}.cls-41{fill:#e2e2e2;}.cls-42{fill:#e1e1e1;}.cls-43{fill:#e0e0e0;}.cls-44{fill:#dfdfdf;}.cls-45{fill:#dedede;}.cls-46{fill:#ddd;}.cls-47{fill:#dcdcdc;}.cls-48{fill:#dbdbdb;}.cls-49{fill:#dadad9;}.cls-50{fill:#d9d9d8;}.cls-51{fill:#d7d7d7;}.cls-52{fill:#d6d6d6;}.cls-53{fill:#d5d5d4;}.cls-54{fill:#d4d4d3;}.cls-55{fill:#d2d2d2;}.cls-56{fill:#d1d1d0;}.cls-57{fill:#cfcfcf;}.cls-58{fill:#cecece;}.cls-59{fill:#ccc;}.cls-60{fill:#cbcbcb;}.cls-61{fill:#c9c9c9;}.cls-62{fill:#c8c8c7;}.cls-63{fill:#c6c6c6;}.cls-64{fill:#c5c5c4;}.cls-65{fill:#c3c3c2;}.cls-66{fill:#c1c1c1;}.cls-67{fill:#bfbfbf;}.cls-68{fill:#bdbdbd;}.cls-69{fill:#bcbcbb;}.cls-70{fill:#babab9;}.cls-71{fill:#b8b8b7;}.cls-72{fill:#b6b6b5;}.cls-73{fill:#b4b4b3;}.cls-74{fill:#b2b2b1;}.cls-75{fill:#b0b0af;}.cls-76{fill:#adadad;}.cls-77{fill:#ababaa;}.cls-78{fill:#a9a9a8;}.cls-79{fill:#a7a7a6;}.cls-80{fill:#a4a4a3;}.cls-81{fill:#a2a2a1;}.cls-82{fill:#9f9f9e;}.cls-83{fill:#9d9d9c;}.cls-84{fill:#9a9a99;}.cls-85{fill:#989897;}.cls-86{fill:#959594;}.cls-87{fill:#929291;}.cls-88{fill:#8f8f8e;}.cls-89{fill:#8d8d8c;}.cls-90{fill:#8a8a89;}.cls-91{fill:#878786;}.cls-92{fill:#848483;}.cls-93{fill:#81817f;}.cls-94{fill:#7d7d7c;}.cls-95{fill:#7a7a79;}.cls-96{fill:#777776;}.cls-97{fill:#747472;}.cls-98{fill:#70706f;}.cls-99{fill:#6d6d6b;}.cls-100{fill:#696968;}.cls-101{fill:#666664;}.cls-102{fill:#626261;}.cls-103{fill:#5e5e5d;}.cls-104{fill:#5a5a59;}.cls-105{fill:#565655;}.cls-106{fill:#535351;}.cls-107{fill:#4f4f4d;}.cls-108{fill:#4a4a49;}.cls-109{fill:#464645;}.cls-110{fill:#424240;}.cls-111{fill:#3e3e3c;}.cls-112{fill:#393937;}.cls-113{fill:#353533;}.cls-114{fill:#30302e;}.cls-115{fill:#2b2b2a;}.cls-116{fill:#272725;}.cls-117{fill:#222220;}.cls-118{fill:#1d1d1b;}.cls-119{clip-path:url(#clip-path-2);}</style><clipPath id="clip-path"><path class="cls-1" d="M1890.46,141a77.93,77.93,0,0,1-21.36,12l-503.34,224.6-224.17-70.45L1514,141Z"/></clipPath><clipPath id="clip-path-2"><path class="cls-1" d="M639.26,701.82,398.2,809.39l-107.64,48L52,811l2.29-18.77c.92-.39,1.85-.76,2.8-1.11L538.75,576.19Z"/></clipPath></defs><title>menu_1</title><g class="cls-2"><g id="Layer_2" data-name="Layer 2"><g id="Layer_3" data-name="Layer 3"><g class="cls-3"><rect class="cls-4" width="1919" height="948" rx="72.68"/></g><path class="cls-5" d="M1890.46,141a77.93,77.93,0,0,1-21.36,12l-503.34,224.6L828.35,617.44,639.26,701.82,398.2,809.39l-107.64,48-179.1,79.92A78,78,0,0,1,54.29,792.23c.92-.39,1.85-.76,2.8-1.11L538.75,576.19,604.19,547l537.4-239.8L1514,141,1814.72,6.82A78,78,0,0,1,1890.46,141Z"/><g class="cls-6"><g class="cls-7"><path class="cls-8" d="M1141.59,141v0Z"/><rect class="cls-8" x="1141.59" y="141" width="3.28" height="236.64"/><rect class="cls-8" x="1144.87" y="141" width="3.28" height="236.64"/><rect class="cls-8" x="1148.16" y="141" width="3.28" height="236.64"/><rect class="cls-8" x="1151.44" y="141" width="3.28" height="236.64"/><rect class="cls-8" x="1154.73" y="141" width="3.28" height="236.64"/><rect class="cls-8" x="1158.01" y="141" width="3.28" height="236.64"/><rect class="cls-8" x="1161.3" y="141" width="3.28" height="236.64"/><rect class="cls-8" x="1164.58" y="141" width="3.28" height="236.64"/><rect class="cls-8" x="1167.87" y="141" width="3.28" height="236.64"/><rect class="cls-8" x="1171.15" y="141" width="3.28" height="236.64"/><rect class="cls-8" x="1174.44" y="141" width="3.28" height="236.64"/><rect class="cls-8" x="1177.72" y="141" width="3.28" height="236.64"/><rect class="cls-8" x="1181" y="141" width="3.28" height="236.64"/><rect class="cls-8" x="1184.29" y="141" width="3.28" height="236.64"/><rect class="cls-8" x="1187.57" y="141" width="3.28" height="236.64"/><rect class="cls-8" x="1190.86" y="141" width="3.28" height="236.64"/><rect class="cls-8" x="1194.14" y="141" width="3.28" height="236.64"/><rect class="cls-8" x="1197.43" y="141" width="3.28" height="236.64"/><rect class="cls-8" x="1200.71" y="141" width="3.28" height="236.64"/><rect class="cls-8" x="1204" y="141" width="3.28" height="236.64"/><rect class="cls-8" x="1207.28" y="141" width="3.28" height="236.64"/><rect class="cls-8" x="1210.56" y="141" width="3.28" height="236.64"/><rect class="cls-8" x="1213.85" y="141" width="3.28" height="236.64"/><rect class="cls-8" x="1217.13" y="141" width="3.28" height="236.64"/><rect class="cls-8" x="1220.42" y="141" width="3.28" height="236.64"/><rect class="cls-8" x="1223.7" y="141" width="3.28" height="236.64"/><rect class="cls-8" x="1226.99" y="141" width="3.28" height="236.64"/><rect class="cls-8" x="1230.27" y="141" width="3.28" height="236.64"/><rect class="cls-8" x="1233.56" y="141" width="3.28" height="236.64"/><rect class="cls-8" x="1236.84" y="141" width="3.28" height="236.64"/><rect class="cls-8" x="1240.13" y="141" width="3.28" height="236.64"/><rect class="cls-8" x="1243.41" y="141" width="3.28" height="236.64"/><rect class="cls-8" x="1246.69" y="141" width="3.28" height="236.64"/><rect class="cls-8" x="1249.98" y="141" width="3.28" height="236.64"/><rect class="cls-8" x="1253.26" y="141" width="3.28" height="236.64"/><rect class="cls-8" x="1256.55" y="141" width="3.28" height="236.64"/><rect class="cls-8" x="1259.83" y="141" width="3.28" height="236.64"/><rect class="cls-8" x="1263.12" y="141" width="3.28" height="236.64"/><rect class="cls-8" x="1266.4" y="141" width="3.28" height="236.64"/><rect class="cls-8" x="1269.69" y="141" width="3.28" height="236.64"/><rect class="cls-8" x="1272.97" y="141" width="3.28" height="236.64"/><rect class="cls-8" x="1276.26" y="141" width="3.28" height="236.64"/><rect class="cls-8" x="1279.54" y="141" width="3.28" height="236.64"/><rect class="cls-8" x="1282.82" y="141" width="3.28" height="236.64"/><rect class="cls-8" x="1286.11" y="141" width="3.28" height="236.64"/><rect class="cls-8" x="1289.39" y="141" width="3.28" height="236.64"/><rect class="cls-8" x="1292.68" y="141" width="3.28" height="236.64"/><rect class="cls-8" x="1295.96" y="141" width="3.28" height="236.64"/><rect class="cls-8" x="1299.25" y="141" width="3.28" height="236.64"/><rect class="cls-8" x="1302.53" y="141" width="3.28" height="236.64"/><rect class="cls-8" x="1305.82" y="141" width="3.28" height="236.64"/><rect class="cls-8" x="1309.1" y="141" width="3.28" height="236.64"/><rect class="cls-8" x="1312.38" y="141" width="3.28" height="236.64"/><rect class="cls-8" x="1315.67" y="141" width="3.28" height="236.64"/><rect class="cls-8" x="1318.95" y="141" width="3.28" height="236.64"/><rect class="cls-8" x="1322.24" y="141" width="3.28" height="236.64"/><rect class="cls-8" x="1325.52" y="141" width="3.28" height="236.64"/><rect class="cls-8" x="1328.81" y="141" width="3.28" height="236.64"/><rect class="cls-8" x="1332.09" y="141" width="3.28" height="236.64"/><rect class="cls-8" x="1335.38" y="141" width="3.28" height="236.64"/><rect class="cls-8" x="1338.66" y="141" width="3.28" height="236.64"/><rect class="cls-8" x="1341.95" y="141" width="3.28" height="236.64"/><rect class="cls-8" x="1345.23" y="141" width="3.28" height="236.64"/><rect class="cls-8" x="1348.51" y="141" width="3.28" height="236.64"/><rect class="cls-8" x="1351.8" y="141" width="3.28" height="236.64"/><rect class="cls-8" x="1355.08" y="141" width="3.28" height="236.64"/><rect class="cls-8" x="1358.37" y="141" width="3.28" height="236.64"/><rect class="cls-9" x="1361.65" y="141" width="3.28" height="236.64"/><rect class="cls-9" x="1364.94" y="141" width="3.28" height="236.64"/><rect class="cls-9" x="1368.22" y="141" width="3.28" height="236.64"/><rect class="cls-9" x="1371.51" y="141" width="3.28" height="236.64"/><rect class="cls-9" x="1374.79" y="141" width="3.28" height="236.64"/><rect class="cls-9" x="1378.08" y="141" width="3.28" height="236.64"/><rect class="cls-9" x="1381.36" y="141" width="3.28" height="236.64"/><rect class="cls-9" x="1384.64" y="141" width="3.28" height="236.64"/><rect class="cls-9" x="1387.93" y="141" width="3.28" height="236.64"/><rect class="cls-9" x="1391.21" y="141" width="3.28" height="236.64"/><rect class="cls-9" x="1394.5" y="141" width="3.28" height="236.64"/><rect class="cls-9" x="1397.78" y="141" width="3.28" height="236.64"/><rect class="cls-9" x="1401.07" y="141" width="3.28" height="236.64"/><rect class="cls-9" x="1404.35" y="141" width="3.28" height="236.64"/><rect class="cls-9" x="1407.64" y="141" width="3.28" height="236.64"/><rect class="cls-9" x="1410.92" y="141" width="3.28" height="236.64"/><rect class="cls-10" x="1414.2" y="141" width="3.28" height="236.64"/><rect class="cls-10" x="1417.49" y="141" width="3.28" height="236.64"/><rect class="cls-10" x="1420.77" y="141" width="3.28" height="236.64"/><rect class="cls-10" x="1424.06" y="141" width="3.28" height="236.64"/><rect class="cls-10" x="1427.34" y="141" width="3.28" height="236.64"/><rect class="cls-10" x="1430.63" y="141" width="3.28" height="236.64"/><rect class="cls-10" x="1433.91" y="141" width="3.28" height="236.64"/><rect class="cls-10" x="1437.2" y="141" width="3.28" height="236.64"/><rect class="cls-10" x="1440.48" y="141" width="3.28" height="236.64"/><rect class="cls-11" x="1443.77" y="141" width="3.28" height="236.64"/><rect class="cls-11" x="1447.05" y="141" width="3.28" height="236.64"/><rect class="cls-11" x="1450.33" y="141" width="3.28" height="236.64"/><rect class="cls-11" x="1453.62" y="141" width="3.28" height="236.64"/><rect class="cls-11" x="1456.9" y="141" width="3.28" height="236.64"/><rect class="cls-11" x="1460.19" y="141" width="3.28" height="236.64"/><rect class="cls-11" x="1463.47" y="141" width="3.28" height="236.64"/><rect class="cls-12" x="1466.76" y="141" width="3.28" height="236.64"/><rect class="cls-12" x="1470.04" y="141" width="3.28" height="236.64"/><rect class="cls-12" x="1473.33" y="141" width="3.28" height="236.64"/><rect class="cls-12" x="1476.61" y="141" width="3.28" height="236.64"/><rect class="cls-12" x="1479.9" y="141" width="3.28" height="236.64"/><rect class="cls-13" x="1483.18" y="141" width="3.28" height="236.64"/><rect class="cls-13" x="1486.46" y="141" width="3.28" height="236.64"/><rect class="cls-13" x="1489.75" y="141" width="3.28" height="236.64"/><rect class="cls-13" x="1493.03" y="141" width="3.28" height="236.64"/><rect class="cls-14" x="1496.32" y="141" width="3.28" height="236.64"/><rect class="cls-14" x="1499.6" y="141" width="3.28" height="236.64"/><rect class="cls-14" x="1502.89" y="141" width="3.28" height="236.64"/><rect class="cls-14" x="1506.17" y="141" width="3.28" height="236.64"/><rect class="cls-15" x="1509.46" y="141" width="3.28" height="236.64"/><rect class="cls-15" x="1512.74" y="141" width="3.28" height="236.64"/><rect class="cls-15" x="1516.03" y="141" width="3.28" height="236.64"/><rect class="cls-16" x="1519.31" y="141" width="3.28" height="236.64"/><rect class="cls-16" x="1522.59" y="141" width="3.28" height="236.64"/><rect class="cls-16" x="1525.88" y="141" width="3.28" height="236.64"/><rect class="cls-17" x="1529.16" y="141" width="3.28" height="236.64"/><rect class="cls-17" x="1532.45" y="141" width="3.28" height="236.64"/><rect class="cls-18" x="1535.73" y="141" width="3.28" height="236.64"/><rect class="cls-19" x="1539.02" y="141" width="3.28" height="236.64"/><rect class="cls-19" x="1542.3" y="141" width="3.28" height="236.64"/><rect class="cls-20" x="1545.59" y="141" width="3.28" height="236.64"/><rect class="cls-20" x="1548.87" y="141" width="3.28" height="236.64"/><rect class="cls-21" x="1552.15" y="141" width="3.28" height="236.64"/><rect class="cls-21" x="1555.44" y="141" width="3.28" height="236.64"/><rect class="cls-22" x="1558.72" y="141" width="3.28" height="236.64"/><rect class="cls-22" x="1562.01" y="141" width="3.28" height="236.64"/><rect class="cls-23" x="1565.29" y="141" width="3.28" height="236.64"/><rect class="cls-23" x="1568.58" y="141" width="3.28" height="236.64"/><rect class="cls-24" x="1571.86" y="141" width="3.28" height="236.64"/><rect class="cls-24" x="1575.15" y="141" width="3.28" height="236.64"/><rect class="cls-25" x="1578.43" y="141" width="3.28" height="236.64"/><rect class="cls-26" x="1581.72" y="141" width="3.28" height="236.64"/><rect class="cls-27" x="1585" y="141" width="3.28" height="236.64"/><rect class="cls-28" x="1588.28" y="141" width="3.28" height="236.64"/><rect class="cls-28" x="1591.57" y="141" width="3.28" height="236.64"/><rect class="cls-29" x="1594.85" y="141" width="3.28" height="236.64"/><rect class="cls-30" x="1598.14" y="141" width="3.28" height="236.64"/><rect class="cls-31" x="1601.42" y="141" width="3.28" height="236.64"/><rect class="cls-32" x="1604.71" y="141" width="3.28" height="236.64"/><rect class="cls-33" x="1607.99" y="141" width="3.28" height="236.64"/><rect class="cls-34" x="1611.28" y="141" width="3.28" height="236.64"/><rect class="cls-35" x="1614.56" y="141" width="3.28" height="236.64"/><rect class="cls-36" x="1617.85" y="141" width="3.28" height="236.64"/><rect class="cls-37" x="1621.13" y="141" width="3.28" height="236.64"/><rect class="cls-38" x="1624.41" y="141" width="3.28" height="236.64"/><rect class="cls-39" x="1627.7" y="141" width="3.28" height="236.64"/><rect class="cls-40" x="1630.98" y="141" width="3.28" height="236.64"/><rect class="cls-41" x="1634.27" y="141" width="3.28" height="236.64"/><rect class="cls-42" x="1637.55" y="141" width="3.28" height="236.64"/><rect class="cls-43" x="1640.84" y="141" width="3.28" height="236.64"/><rect class="cls-44" x="1644.12" y="141" width="3.28" height="236.64"/><rect class="cls-45" x="1647.41" y="141" width="3.28" height="236.64"/><rect class="cls-46" x="1650.69" y="141" width="3.28" height="236.64"/><rect class="cls-47" x="1653.97" y="141" width="3.28" height="236.64"/><rect class="cls-48" x="1657.26" y="141" width="3.28" height="236.64"/><rect class="cls-49" x="1660.54" y="141" width="3.28" height="236.64"/><rect class="cls-50" x="1663.83" y="141" width="3.28" height="236.64"/><rect class="cls-51" x="1667.11" y="141" width="3.28" height="236.64"/><rect class="cls-52" x="1670.4" y="141" width="3.28" height="236.64"/><rect class="cls-53" x="1673.68" y="141" width="3.28" height="236.64"/><rect class="cls-54" x="1676.97" y="141" width="3.28" height="236.64"/><rect class="cls-55" x="1680.25" y="141" width="3.28" height="236.64"/><rect class="cls-56" x="1683.54" y="141" width="3.28" height="236.64"/><rect class="cls-57" x="1686.82" y="141" width="3.28" height="236.64"/><rect class="cls-58" x="1690.1" y="141" width="3.28" height="236.64"/><rect class="cls-59" x="1693.39" y="141" width="3.28" height="236.64"/><rect class="cls-60" x="1696.67" y="141" width="3.28" height="236.64"/><rect class="cls-61" x="1699.96" y="141" width="3.28" height="236.64"/><rect class="cls-62" x="1703.24" y="141" width="3.28" height="236.64"/><rect class="cls-63" x="1706.53" y="141" width="3.28" height="236.64"/><rect class="cls-64" x="1709.81" y="141" width="3.28" height="236.64"/><rect class="cls-65" x="1713.1" y="141" width="3.28" height="236.64"/><rect class="cls-66" x="1716.38" y="141" width="3.28" height="236.64"/><rect class="cls-67" x="1719.67" y="141" width="3.28" height="236.64"/><rect class="cls-68" x="1722.95" y="141" width="3.28" height="236.64"/><rect class="cls-69" x="1726.23" y="141" width="3.28" height="236.64"/><rect class="cls-70" x="1729.52" y="141" width="3.28" height="236.64"/><rect class="cls-71" x="1732.8" y="141" width="3.28" height="236.64"/><rect class="cls-72" x="1736.09" y="141" width="3.28" height="236.64"/><rect class="cls-73" x="1739.37" y="141" width="3.28" height="236.64"/><rect class="cls-74" x="1742.66" y="141" width="3.28" height="236.64"/><rect class="cls-75" x="1745.94" y="141" width="3.28" height="236.64"/><rect class="cls-76" x="1749.23" y="141" width="3.28" height="236.64"/><rect class="cls-77" x="1752.51" y="141" width="3.28" height="236.64"/><rect class="cls-78" x="1755.79" y="141" width="3.28" height="236.64"/><rect class="cls-79" x="1759.08" y="141" width="3.28" height="236.64"/><rect class="cls-80" x="1762.36" y="141" width="3.28" height="236.64"/><rect class="cls-81" x="1765.65" y="141" width="3.28" height="236.64"/><rect class="cls-82" x="1768.93" y="141" width="3.28" height="236.64"/><rect class="cls-83" x="1772.22" y="141" width="3.28" height="236.64"/><rect class="cls-84" x="1775.5" y="141" width="3.28" height="236.64"/><rect class="cls-85" x="1778.79" y="141" width="3.28" height="236.64"/><rect class="cls-86" x="1782.07" y="141" width="3.28" height="236.64"/><rect class="cls-87" x="1785.36" y="141" width="3.28" height="236.64"/><rect class="cls-88" x="1788.64" y="141" width="3.28" height="236.64"/><rect class="cls-89" x="1791.92" y="141" width="3.28" height="236.64"/><rect class="cls-90" x="1795.21" y="141" width="3.28" height="236.64"/><rect class="cls-91" x="1798.49" y="141" width="3.28" height="236.64"/><rect class="cls-92" x="1801.78" y="141" width="3.28" height="236.64"/><rect class="cls-93" x="1805.06" y="141" width="3.28" height="236.64"/><rect class="cls-94" x="1808.35" y="141" width="3.28" height="236.64"/><rect class="cls-95" x="1811.63" y="141" width="3.28" height="236.64"/><rect class="cls-96" x="1814.92" y="141" width="3.28" height="236.64"/><rect class="cls-97" x="1818.2" y="141" width="3.28" height="236.64"/><rect class="cls-98" x="1821.49" y="141" width="3.28" height="236.64"/><rect class="cls-99" x="1824.77" y="141" width="3.28" height="236.64"/><rect class="cls-100" x="1828.05" y="141" width="3.28" height="236.64"/><rect class="cls-101" x="1831.34" y="141" width="3.28" height="236.64"/><rect class="cls-102" x="1834.62" y="141" width="3.28" height="236.64"/><rect class="cls-103" x="1837.91" y="141" width="3.28" height="236.64"/><rect class="cls-104" x="1841.19" y="141" width="3.28" height="236.64"/><rect class="cls-105" x="1844.48" y="141" width="3.28" height="236.64"/><rect class="cls-106" x="1847.76" y="141" width="3.28" height="236.64"/><rect class="cls-107" x="1851.05" y="141" width="3.28" height="236.64"/><rect class="cls-108" x="1854.33" y="141" width="3.28" height="236.64"/><rect class="cls-109" x="1857.61" y="141" width="3.28" height="236.64"/><rect class="cls-110" x="1860.9" y="141" width="3.28" height="236.64"/><rect class="cls-111" x="1864.18" y="141" width="3.28" height="236.64"/><rect class="cls-112" x="1867.47" y="141" width="3.28" height="236.64"/><rect class="cls-113" x="1870.75" y="141" width="3.28" height="236.64"/><rect class="cls-114" x="1874.04" y="141" width="3.28" height="236.64"/><rect class="cls-115" x="1877.32" y="141" width="3.28" height="236.64"/><rect class="cls-116" x="1880.61" y="141" width="3.28" height="236.64"/><rect class="cls-117" x="1883.89" y="141" width="3.28" height="236.64"/><rect class="cls-118" x="1887.18" y="141" width="3.28" height="236.64"/><path class="cls-118" d="M1890.46,377.64v0Z"/></g></g><rect class="cls-20" y="2" width="1919" height="156" rx="78"/><g class="cls-6"><g class="cls-119"><polygon class="cls-8" points="639.26 576.35 639 576.19 639.26 576.19 639.26 576.35"/><polygon class="cls-8" points="639.26 579.28 634.05 576.19 639 576.19 639.26 576.35 639.26 579.28"/><polygon class="cls-8" points="639.26 582.22 629.1 576.19 634.05 576.19 639.26 579.28 639.26 582.22"/><polygon class="cls-8" points="639.26 585.16 624.16 576.19 629.1 576.19 639.26 582.22 639.26 585.16"/><polygon class="cls-8" points="639.26 588.1 619.21 576.19 624.16 576.19 639.26 585.16 639.26 588.1"/><polygon class="cls-8" points="639.26 591.03 614.27 576.19 619.21 576.19 639.26 588.1 639.26 591.03"/><polygon class="cls-8" points="639.26 593.97 609.32 576.19 614.27 576.19 639.26 591.03 639.26 593.97"/><polygon class="cls-8" points="639.26 596.91 604.37 576.19 609.32 576.19 639.26 593.97 639.26 596.91"/><polygon class="cls-8" points="639.26 599.85 599.43 576.19 604.37 576.19 639.26 596.91 639.26 599.85"/><polygon class="cls-8" points="639.26 602.78 594.48 576.19 599.43 576.19 639.26 599.85 639.26 602.78"/><polygon class="cls-8" points="639.26 605.72 589.54 576.19 594.48 576.19 639.26 602.78 639.26 605.72"/><polygon class="cls-8" points="639.26 608.66 584.59 576.19 589.54 576.19 639.26 605.72 639.26 608.66"/><polygon class="cls-8" points="639.26 611.6 579.64 576.19 584.59 576.19 639.26 608.66 639.26 611.6"/><polygon class="cls-8" points="639.26 614.53 574.7 576.19 579.64 576.19 639.26 611.6 639.26 614.53"/><polygon class="cls-8" points="639.26 617.47 569.75 576.19 574.7 576.19 639.26 614.53 639.26 617.47"/><polygon class="cls-8" points="639.26 620.41 564.81 576.19 569.75 576.19 639.26 617.47 639.26 620.41"/><polygon class="cls-8" points="639.26 623.35 559.86 576.19 564.81 576.19 639.26 620.41 639.26 623.35"/><polygon class="cls-8" points="639.26 626.28 554.92 576.19 559.86 576.19 639.26 623.35 639.26 626.28"/><polygon class="cls-8" points="639.26 629.22 549.97 576.19 554.92 576.19 639.26 626.28 639.26 629.22"/><polygon class="cls-8" points="639.26 632.16 545.02 576.19 549.97 576.19 639.26 629.22 639.26 632.16"/><polygon class="cls-8" points="639.26 635.1 540.08 576.19 545.02 576.19 639.26 632.16 639.26 635.1"/><polygon class="cls-8" points="639.26 638.03 535.13 576.19 540.08 576.19 639.26 635.1 639.26 638.03"/><polygon class="cls-8" points="639.26 640.97 530.19 576.19 535.13 576.19 639.26 638.03 639.26 640.97"/><polygon class="cls-8" points="639.26 643.91 525.24 576.19 530.19 576.19 639.26 640.97 639.26 643.91"/><polygon class="cls-8" points="639.26 646.85 520.3 576.19 525.24 576.19 639.26 643.91 639.26 646.85"/><polygon class="cls-8" points="639.26 649.78 515.35 576.19 520.3 576.19 639.26 646.85 639.26 649.78"/><polygon class="cls-8" points="639.26 652.72 510.4 576.19 515.35 576.19 639.26 649.78 639.26 652.72"/><polygon class="cls-8" points="639.26 655.66 505.46 576.19 510.4 576.19 639.26 652.72 639.26 655.66"/><polygon class="cls-8" points="639.26 658.6 500.51 576.19 505.46 576.19 639.26 655.66 639.26 658.6"/><polygon class="cls-8" points="639.26 661.53 495.57 576.19 500.51 576.19 639.26 658.6 639.26 661.53"/><polygon class="cls-8" points="639.26 664.47 490.62 576.19 495.57 576.19 639.26 661.53 639.26 664.47"/><polygon class="cls-8" points="639.26 667.41 485.68 576.19 490.62 576.19 639.26 664.47 639.26 667.41"/><polygon class="cls-8" points="639.26 670.35 480.73 576.19 485.68 576.19 639.26 667.41 639.26 670.35"/><polygon class="cls-8" points="639.26 673.28 475.78 576.19 480.73 576.19 639.26 670.35 639.26 673.28"/><polygon class="cls-8" points="639.26 676.22 470.84 576.19 475.78 576.19 639.26 673.28 639.26 676.22"/><polygon class="cls-8" points="639.26 679.16 465.89 576.19 470.84 576.19 639.26 676.22 639.26 679.16"/><polygon class="cls-8" points="639.26 682.1 460.95 576.19 465.89 576.19 639.26 679.16 639.26 682.1"/><polygon class="cls-8" points="639.26 685.03 456 576.19 460.95 576.19 639.26 682.1 639.26 685.03"/><polygon class="cls-8" points="639.26 687.97 451.06 576.19 456 576.19 639.26 685.03 639.26 687.97"/><polygon class="cls-8" points="639.26 690.91 446.11 576.19 451.06 576.19 639.26 687.97 639.26 690.91"/><polygon class="cls-8" points="639.26 693.84 441.16 576.19 446.11 576.19 639.26 690.91 639.26 693.84"/><polygon class="cls-8" points="639.26 696.78 436.22 576.19 441.16 576.19 639.26 693.84 639.26 696.78"/><polygon class="cls-8" points="639.26 699.72 431.27 576.19 436.22 576.19 639.26 696.78 639.26 699.72"/><polygon class="cls-8" points="639.26 702.66 426.33 576.19 431.27 576.19 639.26 699.72 639.26 702.66"/><polygon class="cls-8" points="639.26 705.59 421.38 576.19 426.33 576.19 639.26 702.66 639.26 705.59"/><polygon class="cls-8" points="639.26 705.74 638.03 707.8 416.43 576.19 421.38 576.19 639.26 705.59 639.26 705.74"/><polygon class="cls-9" points="638.03 707.8 636.74 709.97 411.49 576.19 416.43 576.19 638.03 707.8"/><polygon class="cls-9" points="636.74 709.97 635.45 712.14 406.54 576.19 411.49 576.19 636.74 709.97"/><polygon class="cls-9" points="635.45 712.14 634.16 714.32 401.6 576.19 406.54 576.19 635.45 712.14"/><polygon class="cls-9" points="634.16 714.32 632.87 716.49 396.65 576.19 401.6 576.19 634.16 714.32"/><polygon class="cls-9" points="632.87 716.49 631.59 718.66 391.7 576.19 396.65 576.19 632.87 716.49"/><polygon class="cls-9" points="631.59 718.66 630.29 720.83 386.76 576.19 391.7 576.19 631.59 718.66"/><polygon class="cls-9" points="630.29 720.83 629 723 381.81 576.19 386.76 576.19 630.29 720.83"/><polygon class="cls-9" points="629 723 627.72 725.17 376.87 576.19 381.81 576.19 629 723"/><polygon class="cls-9" points="627.72 725.17 626.43 727.35 371.92 576.19 376.87 576.19 627.72 725.17"/><polygon class="cls-9" points="626.43 727.35 625.14 729.52 366.98 576.19 371.92 576.19 626.43 727.35"/><polygon class="cls-9" points="625.14 729.52 623.85 731.69 362.03 576.19 366.98 576.19 625.14 729.52"/><polygon class="cls-9" points="623.85 731.69 622.56 733.86 357.08 576.19 362.03 576.19 623.85 731.69"/><polygon class="cls-9" points="622.56 733.86 621.27 736.03 352.14 576.19 357.08 576.19 622.56 733.86"/><polygon class="cls-9" points="621.27 736.03 619.98 738.2 347.19 576.19 352.14 576.19 621.27 736.03"/><polygon class="cls-9" points="619.98 738.2 618.69 740.37 342.25 576.19 347.19 576.19 619.98 738.2"/><polygon class="cls-9" points="618.69 740.37 617.4 742.55 337.3 576.19 342.25 576.19 618.69 740.37"/><polygon class="cls-10" points="617.4 742.55 616.11 744.72 332.36 576.19 337.3 576.19 617.4 742.55"/><polygon class="cls-10" points="616.11 744.72 614.82 746.89 327.41 576.19 332.36 576.19 616.11 744.72"/><polygon class="cls-10" points="614.82 746.89 613.53 749.06 322.46 576.19 327.41 576.19 614.82 746.89"/><polygon class="cls-10" points="613.53 749.06 612.24 751.23 317.52 576.19 322.46 576.19 613.53 749.06"/><polygon class="cls-10" points="612.24 751.23 610.95 753.4 312.57 576.19 317.52 576.19 612.24 751.23"/><polygon class="cls-10" points="610.95 753.4 609.66 755.58 307.63 576.19 312.57 576.19 610.95 753.4"/><polygon class="cls-10" points="609.66 755.58 608.37 757.75 302.68 576.19 307.63 576.19 609.66 755.58"/><polygon class="cls-10" points="608.37 757.75 607.08 759.92 297.74 576.19 302.68 576.19 608.37 757.75"/><polygon class="cls-10" points="607.08 759.92 605.79 762.09 292.79 576.19 297.74 576.19 607.08 759.92"/><polygon class="cls-11" points="605.79 762.09 604.5 764.26 287.84 576.19 292.79 576.19 605.79 762.09"/><polygon class="cls-11" points="604.5 764.26 603.21 766.43 282.9 576.19 287.84 576.19 604.5 764.26"/><polygon class="cls-11" points="603.21 766.43 601.92 768.6 277.95 576.19 282.9 576.19 603.21 766.43"/><polygon class="cls-11" points="601.92 768.6 600.63 770.77 273.01 576.19 277.95 576.19 601.92 768.6"/><polygon class="cls-11" points="600.63 770.77 599.34 772.95 268.06 576.19 273.01 576.19 600.63 770.77"/><polygon class="cls-11" points="599.34 772.95 598.05 775.12 263.11 576.19 268.06 576.19 599.34 772.95"/><polygon class="cls-11" points="598.05 775.12 596.76 777.29 258.17 576.19 263.11 576.19 598.05 775.12"/><polygon class="cls-12" points="596.76 777.29 595.47 779.46 253.22 576.19 258.17 576.19 596.76 777.29"/><polygon class="cls-12" points="595.47 779.46 594.18 781.63 248.28 576.19 253.22 576.19 595.47 779.46"/><polygon class="cls-12" points="594.18 781.63 592.89 783.8 243.33 576.19 248.28 576.19 594.18 781.63"/><polygon class="cls-12" points="592.89 783.8 591.61 785.98 238.38 576.19 243.33 576.19 592.89 783.8"/><polygon class="cls-12" points="591.61 785.98 590.32 788.15 233.44 576.19 238.38 576.19 591.61 785.98"/><polygon class="cls-13" points="590.32 788.15 589.02 790.32 228.49 576.19 233.44 576.19 590.32 788.15"/><polygon class="cls-13" points="589.02 790.32 587.74 792.49 223.55 576.19 228.49 576.19 589.02 790.32"/><polygon class="cls-13" points="587.74 792.49 586.45 794.66 218.6 576.19 223.55 576.19 587.74 792.49"/><polygon class="cls-13" points="586.45 794.66 585.16 796.83 213.66 576.19 218.6 576.19 586.45 794.66"/><polygon class="cls-14" points="585.16 796.83 583.87 799 208.71 576.19 213.66 576.19 585.16 796.83"/><polygon class="cls-14" points="583.87 799 582.58 801.17 203.76 576.19 208.71 576.19 583.87 799"/><polygon class="cls-14" points="582.58 801.17 581.29 803.35 198.82 576.19 203.76 576.19 582.58 801.17"/><polygon class="cls-14" points="581.29 803.35 580 805.52 193.87 576.19 198.82 576.19 581.29 803.35"/><polygon class="cls-15" points="580 805.52 578.71 807.69 188.93 576.19 193.87 576.19 580 805.52"/><polygon class="cls-15" points="578.71 807.69 577.42 809.86 183.98 576.19 188.93 576.19 578.71 807.69"/><polygon class="cls-15" points="577.42 809.86 576.13 812.03 179.95 576.73 180.28 576.19 183.98 576.19 577.42 809.86"/><rect class="cls-16" x="376.13" y="465.08" width="2.53" height="460.78" transform="translate(-413.28 664.81) rotate(-59.29)"/><rect class="cls-16" x="374.84" y="467.25" width="2.53" height="460.78" transform="translate(-415.78 664.76) rotate(-59.29)"/><rect class="cls-16" x="373.55" y="469.42" width="2.53" height="460.78" transform="translate(-418.27 664.72) rotate(-59.29)"/><rect class="cls-17" x="372.26" y="471.59" width="2.53" height="460.78" transform="translate(-420.77 664.67) rotate(-59.29)"/><rect class="cls-17" x="370.97" y="473.76" width="2.53" height="460.78" transform="translate(-423.27 664.62) rotate(-59.29)"/><rect class="cls-18" x="369.68" y="475.93" width="2.53" height="460.78" transform="translate(-425.77 664.58) rotate(-59.29)"/><rect class="cls-19" x="368.39" y="478.11" width="2.53" height="460.78" transform="translate(-428.27 664.53) rotate(-59.29)"/><rect class="cls-19" x="367.1" y="480.28" width="2.53" height="460.78" transform="translate(-430.76 664.49) rotate(-59.29)"/><rect class="cls-20" x="365.82" y="482.45" width="2.53" height="460.78" transform="translate(-433.26 664.44) rotate(-59.29)"/><rect class="cls-20" x="364.53" y="484.62" width="2.53" height="460.78" transform="translate(-435.76 664.39) rotate(-59.29)"/><rect class="cls-21" x="363.24" y="486.79" width="2.53" height="460.78" transform="translate(-438.26 664.35) rotate(-59.29)"/><rect class="cls-21" x="361.95" y="488.96" width="2.53" height="460.78" transform="translate(-440.76 664.3) rotate(-59.29)"/><rect class="cls-22" x="360.66" y="491.13" width="2.53" height="460.78" transform="translate(-443.26 664.25) rotate(-59.29)"/><rect class="cls-22" x="359.37" y="493.31" width="2.53" height="460.78" transform="translate(-445.75 664.21) rotate(-59.29)"/><rect class="cls-23" x="358.08" y="495.48" width="2.53" height="460.78" transform="translate(-448.25 664.16) rotate(-59.29)"/><rect class="cls-23" x="356.79" y="497.65" width="2.53" height="460.78" transform="translate(-450.75 664.12) rotate(-59.29)"/><rect class="cls-24" x="355.5" y="499.82" width="2.53" height="460.78" transform="translate(-453.25 664.07) rotate(-59.29)"/><rect class="cls-24" x="354.21" y="501.99" width="2.53" height="460.78" transform="translate(-455.75 664.02) rotate(-59.29)"/><rect class="cls-25" x="352.92" y="504.16" width="2.53" height="460.78" transform="translate(-458.24 663.98) rotate(-59.29)"/><rect class="cls-26" x="351.63" y="506.33" width="2.53" height="460.78" transform="translate(-460.74 663.93) rotate(-59.29)"/><polygon class="cls-27" points="550.34 855.46 549.17 857.42 548.69 857.42 152.87 622.34 154.16 620.16 550.34 855.46"/><polygon class="cls-28" points="543.74 857.42 151.58 624.51 152.87 622.34 548.69 857.42 543.74 857.42"/><polygon class="cls-28" points="538.79 857.42 150.29 626.68 151.58 624.51 543.74 857.42 538.79 857.42"/><polygon class="cls-29" points="533.85 857.42 149 628.85 150.29 626.68 538.79 857.42 533.85 857.42"/><polygon class="cls-30" points="528.9 857.42 147.71 631.02 149 628.85 533.85 857.42 528.9 857.42"/><polygon class="cls-31" points="523.96 857.42 146.42 633.19 147.71 631.02 528.9 857.42 523.96 857.42"/><polygon class="cls-32" points="519.01 857.42 145.13 635.36 146.42 633.19 523.96 857.42 519.01 857.42"/><polygon class="cls-33" points="514.07 857.42 143.84 637.53 145.13 635.36 519.01 857.42 514.07 857.42"/><polygon class="cls-34" points="509.12 857.42 142.55 639.71 143.84 637.53 514.07 857.42 509.12 857.42"/><polygon class="cls-35" points="504.18 857.42 141.26 641.88 142.55 639.71 509.12 857.42 504.18 857.42"/><polygon class="cls-36" points="499.23 857.42 139.97 644.05 141.26 641.88 504.18 857.42 499.23 857.42"/><polygon class="cls-37" points="494.28 857.42 138.68 646.22 139.97 644.05 499.23 857.42 494.28 857.42"/><polygon class="cls-38" points="489.34 857.42 137.39 648.39 138.68 646.22 494.28 857.42 489.34 857.42"/><polygon class="cls-39" points="484.39 857.42 136.1 650.56 137.39 648.39 489.34 857.42 484.39 857.42"/><polygon class="cls-40" points="479.45 857.42 134.81 652.74 136.1 650.56 484.39 857.42 479.45 857.42"/><polygon class="cls-41" points="474.5 857.42 133.52 654.91 134.81 652.74 479.45 857.42 474.5 857.42"/><polygon class="cls-42" points="469.55 857.42 132.23 657.08 133.52 654.91 474.5 857.42 469.55 857.42"/><polygon class="cls-43" points="464.61 857.42 130.94 659.25 132.23 657.08 469.55 857.42 464.61 857.42"/><polygon class="cls-44" points="459.66 857.42 129.65 661.42 130.94 659.25 464.61 857.42 459.66 857.42"/><polygon class="cls-45" points="454.72 857.42 128.37 663.59 129.65 661.42 459.66 857.42 454.72 857.42"/><polygon class="cls-46" points="449.77 857.42 127.08 665.76 128.37 663.59 454.72 857.42 449.77 857.42"/><polygon class="cls-47" points="444.82 857.42 125.78 667.93 127.08 665.76 449.77 857.42 444.82 857.42"/><polygon class="cls-48" points="439.88 857.42 124.5 670.11 125.78 667.93 444.82 857.42 439.88 857.42"/><polygon class="cls-49" points="434.93 857.42 123.21 672.28 124.5 670.11 439.88 857.42 434.93 857.42"/><polygon class="cls-50" points="429.99 857.42 121.92 674.45 123.21 672.28 434.93 857.42 429.99 857.42"/><polygon class="cls-51" points="425.04 857.42 120.63 676.62 121.92 674.45 429.99 857.42 425.04 857.42"/><polygon class="cls-52" points="420.1 857.42 119.34 678.79 120.63 676.62 425.04 857.42 420.1 857.42"/><polygon class="cls-53" points="415.15 857.42 118.05 680.96 119.34 678.79 420.1 857.42 415.15 857.42"/><polygon class="cls-54" points="410.2 857.42 116.76 683.13 118.05 680.96 415.15 857.42 410.2 857.42"/><polygon class="cls-55" points="405.26 857.42 115.47 685.31 116.76 683.13 410.2 857.42 405.26 857.42"/><polygon class="cls-56" points="400.31 857.42 114.18 687.48 115.47 685.31 405.26 857.42 400.31 857.42"/><polygon class="cls-57" points="395.37 857.42 112.89 689.65 114.18 687.48 400.31 857.42 395.37 857.42"/><polygon class="cls-58" points="390.42 857.42 111.6 691.82 112.89 689.65 395.37 857.42 390.42 857.42"/><polygon class="cls-59" points="385.48 857.42 110.31 693.99 111.6 691.82 390.42 857.42 385.48 857.42"/><polygon class="cls-60" points="380.53 857.42 109.02 696.16 110.31 693.99 385.48 857.42 380.53 857.42"/><polygon class="cls-61" points="375.58 857.42 107.73 698.34 109.02 696.16 380.53 857.42 375.58 857.42"/><polygon class="cls-62" points="370.64 857.42 106.44 700.51 107.73 698.34 375.58 857.42 370.64 857.42"/><polygon class="cls-63" points="365.69 857.42 105.15 702.68 106.44 700.51 370.64 857.42 365.69 857.42"/><polygon class="cls-64" points="360.75 857.42 103.86 704.85 105.15 702.68 365.69 857.42 360.75 857.42"/><polygon class="cls-65" points="355.8 857.42 102.57 707.02 103.86 704.85 360.75 857.42 355.8 857.42"/><polygon class="cls-66" points="350.86 857.42 101.28 709.19 102.57 707.02 355.8 857.42 350.86 857.42"/><polygon class="cls-67" points="345.91 857.42 99.99 711.36 101.28 709.19 350.86 857.42 345.91 857.42"/><polygon class="cls-68" points="340.96 857.42 98.7 713.54 99.99 711.36 345.91 857.42 340.96 857.42"/><polygon class="cls-69" points="336.02 857.42 97.41 715.71 98.7 713.54 340.96 857.42 336.02 857.42"/><polygon class="cls-70" points="331.07 857.42 96.12 717.88 97.41 715.71 336.02 857.42 331.07 857.42"/><polygon class="cls-71" points="326.13 857.42 94.83 720.05 96.12 717.88 331.07 857.42 326.13 857.42"/><polygon class="cls-72" points="321.18 857.42 93.54 722.22 94.83 720.05 326.13 857.42 321.18 857.42"/><polygon class="cls-73" points="316.23 857.42 92.25 724.39 93.54 722.22 321.18 857.42 316.23 857.42"/><polygon class="cls-74" points="311.29 857.42 90.96 726.56 92.25 724.39 316.23 857.42 311.29 857.42"/><polygon class="cls-75" points="306.34 857.42 89.67 728.74 90.96 726.56 311.29 857.42 306.34 857.42"/><polygon class="cls-76" points="301.4 857.42 88.39 730.91 89.67 728.74 306.34 857.42 301.4 857.42"/><polygon class="cls-77" points="296.45 857.42 87.09 733.08 88.39 730.91 301.4 857.42 296.45 857.42"/><polygon class="cls-78" points="291.5 857.42 85.81 735.25 87.09 733.08 296.45 857.42 291.5 857.42"/><polygon class="cls-79" points="286.56 857.42 84.52 737.42 85.81 735.25 291.5 857.42 286.56 857.42"/><polygon class="cls-80" points="281.61 857.42 83.23 739.59 84.52 737.42 286.56 857.42 281.61 857.42"/><polygon class="cls-81" points="276.67 857.42 81.94 741.76 83.23 739.59 281.61 857.42 276.67 857.42"/><polygon class="cls-82" points="271.72 857.42 80.65 743.94 81.94 741.76 276.67 857.42 271.72 857.42"/><polygon class="cls-83" points="266.78 857.42 79.36 746.11 80.65 743.94 271.72 857.42 266.78 857.42"/><polygon class="cls-84" points="261.83 857.42 78.07 748.28 79.36 746.11 266.78 857.42 261.83 857.42"/><polygon class="cls-85" points="256.88 857.42 76.78 750.45 78.07 748.28 261.83 857.42 256.88 857.42"/><polygon class="cls-86" points="251.94 857.42 75.49 752.62 76.78 750.45 256.88 857.42 251.94 857.42"/><polygon class="cls-87" points="246.99 857.42 74.2 754.79 75.49 752.62 251.94 857.42 246.99 857.42"/><polygon class="cls-88" points="242.05 857.42 72.91 756.97 74.2 754.79 246.99 857.42 242.05 857.42"/><polygon class="cls-89" points="237.1 857.42 71.62 759.14 72.91 756.97 242.05 857.42 237.1 857.42"/><polygon class="cls-90" points="232.16 857.42 70.33 761.31 71.62 759.14 237.1 857.42 232.16 857.42"/><polygon class="cls-91" points="227.21 857.42 69.04 763.48 70.33 761.31 232.16 857.42 227.21 857.42"/><polygon class="cls-92" points="222.26 857.42 67.75 765.65 69.04 763.48 227.21 857.42 222.26 857.42"/><polygon class="cls-93" points="217.32 857.42 66.46 767.82 67.75 765.65 222.26 857.42 217.32 857.42"/><polygon class="cls-94" points="212.37 857.42 65.17 769.99 66.46 767.82 217.32 857.42 212.37 857.42"/><polygon class="cls-95" points="207.43 857.42 63.88 772.16 65.17 769.99 212.37 857.42 207.43 857.42"/><polygon class="cls-96" points="202.48 857.42 62.59 774.34 63.88 772.16 207.43 857.42 202.48 857.42"/><polygon class="cls-97" points="197.53 857.42 61.3 776.51 62.59 774.34 202.48 857.42 197.53 857.42"/><polygon class="cls-98" points="192.59 857.42 60.01 778.68 61.3 776.51 197.53 857.42 192.59 857.42"/><polygon class="cls-99" points="187.64 857.42 58.72 780.85 60.01 778.68 192.59 857.42 187.64 857.42"/><polygon class="cls-100" points="182.7 857.42 57.43 783.02 58.72 780.85 187.64 857.42 182.7 857.42"/><polygon class="cls-101" points="177.75 857.42 56.14 785.19 57.43 783.02 182.7 857.42 177.75 857.42"/><polygon class="cls-102" points="172.81 857.42 54.85 787.37 56.14 785.19 177.75 857.42 172.81 857.42"/><polygon class="cls-103" points="167.86 857.42 53.56 789.54 54.85 787.37 172.81 857.42 167.86 857.42"/><polygon class="cls-104" points="162.91 857.42 52.27 791.71 53.56 789.54 167.86 857.42 162.91 857.42"/><polygon class="cls-105" points="157.97 857.42 52 794.48 52 792.17 52.27 791.71 162.91 857.42 157.97 857.42"/><polygon class="cls-106" points="153.02 857.42 52 797.42 52 794.48 157.97 857.42 153.02 857.42"/><polygon class="cls-107" points="148.08 857.42 52 800.36 52 797.42 153.02 857.42 148.08 857.42"/><polygon class="cls-108" points="143.13 857.42 52 803.29 52 800.36 148.08 857.42 143.13 857.42"/><polygon class="cls-109" points="138.19 857.42 52 806.23 52 803.29 143.13 857.42 138.19 857.42"/><polygon class="cls-110" points="133.24 857.42 52 809.17 52 806.23 138.19 857.42 133.24 857.42"/><polygon class="cls-111" points="128.29 857.42 52 812.11 52 809.17 133.24 857.42 128.29 857.42"/><polygon class="cls-112" points="123.35 857.42 52 815.04 52 812.11 128.29 857.42 123.35 857.42"/><polygon class="cls-113" points="118.4 857.42 52 817.98 52 815.04 123.35 857.42 118.4 857.42"/><polygon class="cls-114" points="113.46 857.42 52 820.92 52 817.98 118.4 857.42 113.46 857.42"/><polygon class="cls-115" points="108.51 857.42 52 823.86 52 820.92 113.46 857.42 108.51 857.42"/><polygon class="cls-116" points="103.56 857.42 52 826.79 52 823.86 108.51 857.42 103.56 857.42"/><polygon class="cls-117" points="98.62 857.42 52 829.73 52 826.79 103.56 857.42 98.62 857.42"/><polygon class="cls-118" points="93.67 857.42 52 832.67 52 829.73 98.62 857.42 93.67 857.42"/><polygon class="cls-118" points="52 832.67 93.67 857.42 52 857.42 52 832.67"/></g></g><rect class="cls-20" y="790" width="1919" height="156" rx="78"/></g></g></g></svg>