<?xml version="1.0" encoding="utf-8"?>
<!-- Generator: Adobe Illustrator 24.0.0, SVG Export Plug-In . SVG Version: 6.00 Build 0)  -->
<svg version="1.1" id="Layer_1" xmlns="http://www.w3.org/2000/svg" xmlns:xlink="http://www.w3.org/1999/xlink" x="0px" y="0px"
	 viewBox="0 0 94.9 123" style="enable-background:new 0 0 94.9 123;" xml:space="preserve">
<style type="text/css">
	.st0{fill:#F4F4F4;}
	.st1{fill:#FFD473;}
</style>
<title>scroll</title>
<g id="Layer_2_1_">
	<g id="Layer_1-2">
		<path class="st0" d="M44.1,115.5l43.3-43.3c1.5-1.5,4-1.5,5.5,0l0.9,0.9c1.5,1.5,1.5,4,0,5.5l-43.3,43.3c-1.5,1.5-4,1.5-5.5,0
			l-0.9-0.9C42.6,119.5,42.6,117,44.1,115.5z"/>
		<path class="st0" d="M44.4,121.9L1.1,78.6c-1.5-1.5-1.5-4,0-5.5L2,72.2c1.5-1.5,4-1.5,5.5,0l43.3,43.3c1.5,1.5,1.5,4,0,5.5
			l-0.9,0.9C48.4,123.4,46,123.4,44.4,121.9z"/>
		<path class="st0" d="M42.9,118.5V4.5C42.9,2,45,0,47.4,0l0,0c2.5,0,4.5,2,4.5,4.5v114c0,2.5-2,4.5-4.5,4.5l0,0
			C45,123,42.9,121,42.9,118.5z"/>
	</g>
</g>
<g>
	<path class="st1" d="M185.5,9.7h3.5v1.6h-5.3V3.7h5.3v1.6h-3.5v1.3h3v1.6h-3V9.7z"/>
	<path class="st1" d="M196.9,7.5l2.5,2.5l-1.3,1.3l-2.5-2.5l-2.5,2.5l-1.3-1.3l2.5-2.5L191.8,5l1.3-1.3l2.5,2.5l2.5-2.5l1.3,1.3
		L196.9,7.5z"/>
	<path class="st1" d="M208.7,6.3c0,1.1-0.7,2.6-2.7,2.6c-0.7,0-1.3,0-1.8,0v2.4h-1.8V8.9V3.7h1.8c0.2,0,0.7,0,1.8,0
		C207.8,3.7,208.7,5.1,208.7,6.3z M207,6.3c0-0.2-0.1-0.5-0.2-0.7c-0.2-0.2-0.5-0.3-0.8-0.3h-1.8v1.9h1.8c0.2,0,0.4,0,0.6-0.1
		c0.1-0.1,0.2-0.1,0.3-0.2C207,6.8,207,6.5,207,6.3z"/>
	<path class="st1" d="M217,9.7v1.6h-3.7h0h-1.8V3.7h1.8v6H217z"/>
	<path class="st1" d="M227.2,7.7c0,2.2-1.8,3.9-3.9,3.9s-3.9-1.8-3.9-3.9s1.8-3.9,3.9-3.9S227.2,5.5,227.2,7.7z M225.6,7.7
		c0-0.6-0.2-1.2-0.7-1.6s-1-0.7-1.6-0.7s-1.2,0.2-1.6,0.7s-0.7,1-0.7,1.6s0.2,1.2,0.7,1.6c0.4,0.4,1,0.7,1.6,0.7s1.2-0.2,1.6-0.7
		C225.4,8.9,225.6,8.3,225.6,7.7z"/>
	<path class="st1" d="M234.6,8.7l1.6,2.6h-2.1l-1.6-2.4c-0.3,0-0.6,0-0.9,0v2.4h-1.8V3.7h1.8c0.2,0,0.7,0,1.8,0
		c1.9,0,2.7,1.4,2.7,2.6C236.2,7.2,235.8,8.3,234.6,8.7z M231.7,7.3h1.8c0.2,0,0.4,0,0.6-0.1c0.1-0.1,0.2-0.1,0.3-0.2
		c0.2-0.2,0.2-0.5,0.2-0.6c0-0.2-0.1-0.5-0.2-0.7c-0.2-0.2-0.4-0.3-0.8-0.3h-1.8V7.3z"/>
	<path class="st1" d="M240.9,9.7h3.5v1.6H239V3.7h5.3v1.6h-3.5v1.3h3v1.6h-3V9.7z"/>
</g>
<text transform="matrix(1 0 0 1 160.8334 22.6282)" class="st1" style="font-family:'Etna'; font-size:11.7162px;">MY</text>
<g>
	<path class="st1" d="M204.5,59.9l-4.1,7.6L199,65l-1.3,2.5l-4.1-7.6h2.1l2,3.8l0.3-0.6l-1.7-3.2h2.1l2,3.8l2-3.8H204.5z"/>
	<path class="st1" d="M215,63.8c0,2.2-1.8,3.9-3.9,3.9s-3.9-1.8-3.9-3.9s1.8-3.9,3.9-3.9S215,61.7,215,63.8z M213.3,63.8
		c0-0.6-0.2-1.2-0.7-1.6s-1-0.7-1.6-0.7s-1.2,0.2-1.6,0.7s-0.7,1-0.7,1.6s0.2,1.2,0.7,1.6c0.4,0.4,1,0.7,1.6,0.7s1.2-0.2,1.6-0.7
		C213.1,65,213.3,64.5,213.3,63.8z"/>
	<path class="st1" d="M222.3,64.9l1.6,2.6h-2.1l-1.6-2.4c-0.3,0-0.6,0-0.9,0v2.4h-1.8v-7.6h1.8c0.2,0,0.7,0,1.8,0
		c1.9,0,2.7,1.4,2.7,2.6C224,63.3,223.5,64.5,222.3,64.9z M219.4,63.4h1.8c0.2,0,0.4,0,0.6-0.1c0.1-0.1,0.2-0.1,0.3-0.2
		c0.2-0.2,0.2-0.5,0.2-0.6c0-0.2-0.1-0.5-0.2-0.7c-0.2-0.2-0.4-0.3-0.8-0.3h-1.8V63.4z"/>
	<path class="st1" d="M229.4,64.7l-0.8,0.8v2h-1.8v-7.6h1.8v3l3-3h2.6l-3.5,3.5l4,4.1h-2.6L229.4,64.7z"/>
</g>
<g>
	<g>
		<g>
			<g>
				<path class="st0" d="M-53.8-65.1c-0.8-6-1.9-11.4-3.3-16c-1.4-4.6-3.1-8.2-4.9-10.8c-1.9-2.6-3.9-4-6-4s-4.1,1.3-6,4
					c-1.8,2.5-3.5,6.2-4.9,10.8c-1.4,4.6-2.5,10-3.3,16c-0.8,6.2-1.2,12.8-1.2,19.6s0.4,13.4,1.2,19.6c0.8,6,1.9,11.4,3.3,16
					c1.4,4.6,3.1,8.2,4.9,10.8c1.9,2.6,3.9,4,6,4s4.1-1.3,6-4c1.8-2.5,3.5-6.2,4.9-10.8c1.4-4.6,2.5-10,3.3-16
					c0.8-6.2,1.2-12.8,1.2-19.6S-53-58.9-53.8-65.1z M-63.4-11.8c-1.4,2-2.9,3.2-4.6,3.2c-0.6,0-1.3-0.2-1.9-0.5
					c-5-2.8-8.9-16.5-9.3-33.3c0-1,0-2,0-3c0-5.3,0.3-10.4,1-15c1.1-8.3,3.2-14.9,5.7-18.6c1.4-2.1,3-3.2,4.6-3.2
					c0.6,0,1.3,0.2,1.9,0.5c5,2.8,8.9,16.4,9.3,33.2c0,1,0,2.1,0,3.1c0,5.3-0.3,10.4-1,14.9C-58.8-22.3-60.9-15.5-63.4-11.8z"/>
			</g>
		</g>
	</g>
	<path class="st1" d="M-69.2-31.4l9.1-29.9c-1.6-8.8-4.6-14.7-8-14.7c-3.6,0-6.7,6.6-8.2,16.4h9.4L-76-29.8c0,0.2,0.1,0.3,0.1,0.5
		c1.6,8.5,4.6,14.2,7.9,14.2c3.6,0,6.7-6.6,8.2-16.3H-69.2z M-62.5-67.8L-62.5-67.8L-62.5-67.8L-62.5-67.8z"/>
</g>
</svg>
