<svg xmlns="http://www.w3.org/2000/svg" viewBox="0 0 512 512"><defs><style>.cls-1{fill:#f4f4f4;}</style></defs><title>f</title><g id="Layer_2" data-name="Layer 2"><g id="Layer_1-2" data-name="Layer 1"><path class="cls-1" d="M475.07,0H36.93A36.92,36.92,0,0,0,0,36.93V475.07A36.92,36.92,0,0,0,36.93,512H273.5V314H207V236.5h66.5v-57c0-66.14,40.38-102.14,99.38-102.14,28.26,0,52.54,2.11,59.62,3.05V149.5H391.82c-32.11,0-38.32,15.25-38.32,37.64V236.5h76.75l-10,77.5H353.5V512H475.07A36.92,36.92,0,0,0,512,475.07V36.93A36.92,36.92,0,0,0,475.07,0Z"/></g></g></svg>