<svg xmlns="http://www.w3.org/2000/svg" viewBox="0 0 512 512"><defs><style>.cls-1{fill:#f4f4f4;}</style></defs><title>twit</title><g id="Layer_2" data-name="Layer 2"><g id="Layer_1-2" data-name="Layer 1"><path class="cls-1" d="M471.71,0H40.29A40.29,40.29,0,0,0,0,40.29V471.71A40.29,40.29,0,0,0,40.29,512H471.71A40.29,40.29,0,0,0,512,471.71V40.29A40.29,40.29,0,0,0,471.71,0ZM374.32,198.55a3.37,3.37,0,0,0-1.36,2.82c.06,1.94.09,3.88.09,5.83,0,77.64-59.1,167.18-167.18,167.18h0a166.2,166.2,0,0,1-77.79-19.24,3.36,3.36,0,0,1,1.6-6.34h.14A117.89,117.89,0,0,0,195.45,329a3.36,3.36,0,0,0-1.31-6.12A58.91,58.91,0,0,1,150,288.29a3.36,3.36,0,0,1,3.39-4.67c1.85.18,3.71.27,5.6.27h.9a3.36,3.36,0,0,0,1.32-6.43,58.78,58.78,0,0,1-33.87-53.23c0-.27,0-.51,0-.75a58.36,58.36,0,0,0,14.63,5.72,3.35,3.35,0,0,0,3.09-5.66,58.85,58.85,0,0,1-11.68-66.62,3.35,3.35,0,0,1,5.57-.74A166.84,166.84,0,0,0,252.46,213.5a3.36,3.36,0,0,0,3.58-3.85,60.29,60.29,0,0,1-.72-9.27,58.78,58.78,0,0,1,100.37-41.52,3.4,3.4,0,0,0,3.11.95,117.75,117.75,0,0,0,27.3-9.45,3.36,3.36,0,0,1,4.45,4.57,59,59,0,0,1-11.43,15.32,3.36,3.36,0,0,0,3.09,5.71c3.14-.76,6.24-1.65,9.28-2.65a3.37,3.37,0,0,1,3.69,5.32A119.6,119.6,0,0,1,374.32,198.55Z"/></g></g></svg>