<svg xmlns="http://www.w3.org/2000/svg" viewBox="0 0 512 512"><defs><style>.cls-1{fill:#fc6;}.cls-2{fill:#f4f4f4;}</style></defs><title>wha</title><g id="Layer_2" data-name="Layer 2"><g id="Layer_1-2" data-name="Layer 1"><path class="cls-1" d="M261.48,124.47c-70.25,0-127.38,57.1-127.41,127.3a127.05,127.05,0,0,0,19.47,67.75l3,4.82-12.87,47,48.2-12.64,4.65,2.75a127.13,127.13,0,0,0,64.82,17.75h.05c70.19,0,127.32-57.11,127.35-127.31a127.33,127.33,0,0,0-127.29-127.4Zm74.9,182c-3.19,8.94-18.48,17.1-25.84,18.2a52.45,52.45,0,0,1-24.11-1.51,223,223,0,0,1-21.83-8.06c-38.4-16.58-63.48-55.24-65.4-57.79s-15.63-20.76-15.63-39.6,9.89-28.1,13.4-31.92A14,14,0,0,1,207.18,181c2.55,0,5.11,0,7.34.13s5.5-.89,8.61,6.57c3.19,7.66,10.85,26.5,11.8,28.41a7,7,0,0,1,.32,6.71c-1.27,2.56-7.3,10.25-9.57,13.09-1.69,2.11-3.91,4-1.68,7.81s9.92,16.37,21.3,26.52c14.63,13,27,17.07,30.79,19s6.06,1.6,8.29-1,9.57-11.17,12.12-15,5.11-3.19,8.62-1.92,22.33,10.54,26.16,12.45,6.38,2.88,7.33,4.47S339.57,297.56,336.38,306.5Z"/><path class="cls-2" d="M475.07,0H36.93A36.92,36.92,0,0,0,0,36.93V475.07A36.92,36.92,0,0,0,36.93,512H475.07A36.92,36.92,0,0,0,512,475.07V36.93A36.92,36.92,0,0,0,475.07,0ZM261.43,405.05h-.07a153.18,153.18,0,0,1-73.22-18.64l-81.22,21.3,21.74-79.38a152.84,152.84,0,0,1-20.46-76.57C108.24,167.3,177,98.6,261.43,98.6A153.21,153.21,0,0,1,414.64,251.88C414.61,336.34,345.87,405.05,261.43,405.05Z"/></g></g></svg>